<svg xmlns="http://www.w3.org/2000/svg" viewBox="0 0 120 120">
  <defs>
    <linearGradient id="a" x1="0" y1="0" x2="1" y2="1">
      <stop offset="0%" stop-color="#4FFFF2"/>
      <stop offset="100%" stop-color="#22A7C8"/>
    </linearGradient>
  </defs>
  <rect width="120" height="120" rx="24" fill="#08083F"/>
  <path d="M60 96 C44 84 28 84 16 90 L16 74 C28 68 44 68 60 80 C76 68 92 68 104 74 L104 90 C92 84 76 84 60 96 Z" fill="url(#a)"/>
  <circle cx="60" cy="44" r="13" fill="#fff"/>
  <path d="M44 64 C44 54 52 50 60 50 C68 50 76 54 76 64 Z" fill="#fff"/>
  <path d="M30 34 L60 23 L90 34 L60 45 Z" fill="url(#a)"/>
  <path d="M48 40 L72 40 L72 51 C72 56 48 56 48 51 Z" fill="#22A7C8"/>
</svg>
